<svg xmlns="http://www.w3.org/2000/svg" viewBox="0 0 500 500"><g data-name="koorin-logo"><path class="cls-1" d="M58.46 280.66v-61.32c0-5.05 3.53-8.68 8.44-8.68s8.44 3.63 8.44 8.68v27.8l23.93-32.41c2.14-2.86 4.6-4.18 7.48-4.18a7.7 7.7 0 017.8 7.47 9.07 9.07 0 01-2.35 6L92.54 248.9 114 275.6a8.28 8.28 0 011.92 5.5 8.46 8.46 0 01-8.33 8.24c-2.78 0-5-1.43-7.27-4.4l-25-32.63v28.35c0 5-3.52 8.68-8.44 8.68s-8.42-3.63-8.42-8.68zM124.06 250c0-23.19 14.43-40 38.78-40s38.79 16.81 38.79 40-14.43 40-38.79 40-38.78-16.81-38.78-40zm60.69 0c0-14.4-8-25.38-21.91-25.38s-21.9 11-21.9 25.38 8 25.38 21.9 25.38 21.91-10.98 21.91-25.38zM298.53 280.66v-60.55a8.32 8.32 0 018.33-8.57h16.24c15.6 0 26 8.57 26 23.3a20.34 20.34 0 01-16.13 20.21c3.95 1.1 6.09 3.85 8.44 7.48l8.33 12.63a10.48 10.48 0 011.93 5.83c0 5.49-4.17 8.35-8.55 8.35-3.74 0-5.66-1.65-7.48-4.5l-12.5-19.57c-1.49-2.3-2.88-3.84-6.41-3.84h-1.28v19.23c0 5-3.53 8.68-8.44 8.68s-8.48-3.63-8.48-8.68zm21.05-33.52c8.12 0 12.6-4.28 12.6-10.88 0-7.14-4.7-10.66-12.82-10.66h-3.95v21.54zM360.81 280.66v-61.32c0-5.05 3.52-8.68 8.44-8.68s8.44 3.63 8.44 8.68v61.32c0 5-3.53 8.68-8.44 8.68s-8.44-3.63-8.44-8.68zM390.07 281.32v-62.09c0-5.49 3.31-8.57 8.34-8.57 4.38 0 5.55 2.09 8.44 5.71l32.8 42v-39.69a7.8 7.8 0 1115.59 0v61.87c0 5.05-2.88 8.79-7.58 8.79-3.74 0-5.66-1.43-8-4.4l-34-43.29v39.67c0 4.61-3.2 8-7.8 8a7.63 7.63 0 01-7.79-8z"/><path class="cls-1" d="M250 84.39C120.67 84.39 15.83 158.54 15.83 250c0 86.39 93.54 157.34 212.91 164.93a72.58 72.58 0 01-30-18.07c-39.87-6.58-76.36-20.83-105.87-41.69C52.61 326.71 30.44 289.36 30.44 250s22.17-76.71 62.41-105.17C134.64 115.28 190.44 99 250 99s115.36 16.28 157.14 45.83c40.25 28.46 62.42 65.81 62.42 105.17s-22.17 76.71-62.42 105.17c-29.5 20.86-66 35.11-105.86 41.69-1.42.23-2.85.46-4.28.67a317.13 317.13 0 01-47 3.47 55.5 55.5 0 010-111c11.05 0 20.05-3.46 26.6-9.4.66-.6 1.3-1.23 1.91-1.88 6.66-7.11 10.27-17.11 10.27-28.72 0-23.19-14.42-40-38.78-40s-38.78 16.81-38.78 40c0 11.61 3.61 21.61 10.27 28.72a72.11 72.11 0 0119.27-5.26c-8.14-3.76-12.66-12.64-12.66-23.46 0-14.4 8-25.38 21.9-25.38s21.9 11 21.9 25.38c0 10.82-4.52 19.7-12.66 23.46a21.87 21.87 0 01-9.23 1.92 70.12 70.12 0 000 140.23q10.75 0 21.26-.68c119.36-7.59 212.9-78.54 212.9-164.93 0-91.46-104.84-165.61-234.17-165.61z"/></g></svg>